<svg width="88" height="28" viewBox="0 0 88 28" fill="none" xmlns="http://www.w3.org/2000/svg">
<rect x="0.125" width="87" height="28" rx="4" fill="#E6E6E6"/>
<path d="M28.817 18.13C28.3923 18.13 28.011 18.0997 27.673 18.039C27.335 17.987 27.036 17.9177 26.776 17.831C26.5247 17.7357 26.308 17.636 26.126 17.532C25.9527 17.4193 25.814 17.311 25.71 17.207V16.037C25.84 16.1497 26.009 16.2667 26.217 16.388C26.425 16.5007 26.6633 16.6047 26.932 16.7C27.2093 16.7953 27.504 16.8733 27.816 16.934C28.1367 16.9947 28.4703 17.025 28.817 17.025C29.493 17.025 30.0303 16.8993 30.429 16.648C30.8277 16.388 31.027 15.998 31.027 15.478C31.027 15.218 30.9793 15.0057 30.884 14.841C30.7887 14.6677 30.65 14.5247 30.468 14.412C30.286 14.2907 30.0563 14.191 29.779 14.113C29.5103 14.0263 29.194 13.9353 28.83 13.84C28.466 13.7447 28.102 13.6363 27.738 13.515C27.374 13.3937 27.0447 13.2333 26.75 13.034C26.464 12.8347 26.23 12.5833 26.048 12.28C25.8747 11.9767 25.788 11.591 25.788 11.123C25.788 10.317 26.0697 9.68867 26.633 9.238C27.1963 8.78733 28.0587 8.562 29.22 8.562C29.558 8.562 29.857 8.58367 30.117 8.627C30.3857 8.66167 30.6197 8.70933 30.819 8.77C31.027 8.822 31.2047 8.88267 31.352 8.952C31.508 9.02133 31.6467 9.08633 31.768 9.147V10.317C31.404 10.083 31.0097 9.91833 30.585 9.823C30.169 9.719 29.714 9.667 29.22 9.667C28.804 9.667 28.453 9.70167 28.167 9.771C27.8897 9.83167 27.6643 9.92267 27.491 10.044C27.3177 10.1653 27.192 10.3127 27.114 10.486C27.036 10.6593 26.997 10.8543 26.997 11.071C26.997 11.331 27.0533 11.5477 27.166 11.721C27.2873 11.8943 27.4433 12.0417 27.634 12.163C27.8333 12.2757 28.0587 12.371 28.31 12.449C28.5613 12.527 28.8257 12.5963 29.103 12.657C29.467 12.7437 29.8397 12.8433 30.221 12.956C30.6023 13.0687 30.9447 13.2247 31.248 13.424C31.5513 13.6233 31.7983 13.8833 31.989 14.204C32.1883 14.516 32.288 14.9233 32.288 15.426C32.288 15.92 32.1883 16.3403 31.989 16.687C31.7983 17.025 31.5427 17.3023 31.222 17.519C30.9013 17.7357 30.533 17.8917 30.117 17.987C29.701 18.0823 29.2677 18.13 28.817 18.13ZM39.1107 17.428C39.0153 17.4973 38.8983 17.571 38.7597 17.649C38.621 17.727 38.452 17.805 38.2527 17.883C38.0533 17.9523 37.828 18.0087 37.5767 18.052C37.3253 18.104 37.0437 18.13 36.7317 18.13C35.5963 18.13 34.734 17.8223 34.1447 17.207C33.5553 16.5917 33.2607 15.7293 33.2607 14.62C33.2607 14.074 33.3387 13.5843 33.4947 13.151C33.6593 12.7177 33.8847 12.3537 34.1707 12.059C34.4567 11.7557 34.7947 11.526 35.1847 11.37C35.5747 11.2053 35.9993 11.123 36.4587 11.123C36.944 11.123 37.3773 11.2053 37.7587 11.37C38.14 11.5347 38.452 11.7773 38.6947 12.098C38.946 12.4187 39.115 12.8173 39.2017 13.294C39.297 13.762 39.297 14.308 39.2017 14.932H34.4437C34.487 15.66 34.7037 16.206 35.0937 16.57C35.4837 16.9253 36.0643 17.103 36.8357 17.103C37.3557 17.103 37.802 17.0293 38.1747 16.882C38.5473 16.7347 38.8593 16.5743 39.1107 16.401V17.428ZM36.4327 12.137C35.9387 12.137 35.514 12.2887 35.1587 12.592C34.8033 12.8953 34.578 13.3547 34.4827 13.97H38.1097C38.1443 13.346 38.0013 12.8867 37.6807 12.592C37.36 12.2887 36.944 12.137 36.4327 12.137ZM43.9372 17.857C43.7986 17.935 43.6209 18 43.4042 18.052C43.1876 18.104 42.9579 18.13 42.7152 18.13C42.3859 18.13 42.1042 18.0823 41.8702 17.987C41.6449 17.8917 41.4586 17.766 41.3112 17.61C41.1639 17.4453 41.0556 17.2633 40.9862 17.064C40.9256 16.856 40.8952 16.6437 40.8952 16.427V12.228H40.0892V11.253H40.8952V9.836H42.0392V11.253H44.0022V12.228H42.0392V16.284C42.0392 16.57 42.1086 16.778 42.2472 16.908C42.3946 17.038 42.6502 17.103 43.0142 17.103C43.3522 17.103 43.6599 17.0077 43.9372 16.817V17.857ZM48.7614 17.857C48.6228 17.935 48.4451 18 48.2284 18.052C48.0118 18.104 47.7821 18.13 47.5394 18.13C47.2101 18.13 46.9284 18.0823 46.6944 17.987C46.4691 17.8917 46.2828 17.766 46.1354 17.61C45.9881 17.4453 45.8798 17.2633 45.8104 17.064C45.7498 16.856 45.7194 16.6437 45.7194 16.427V12.228H44.9134V11.253H45.7194V9.836H46.8634V11.253H48.8264V12.228H46.8634V16.284C46.8634 16.57 46.9328 16.778 47.0714 16.908C47.2188 17.038 47.4744 17.103 47.8384 17.103C48.1764 17.103 48.4841 17.0077 48.7614 16.817V17.857ZM50.8687 10.265C50.6347 10.265 50.4483 10.1957 50.3097 10.057C50.171 9.90967 50.1017 9.732 50.1017 9.524C50.1017 9.316 50.171 9.13833 50.3097 8.991C50.4483 8.84367 50.6347 8.77 50.8687 8.77C51.094 8.77 51.2717 8.84367 51.4017 8.991C51.5317 9.13833 51.5967 9.316 51.5967 9.524C51.5967 9.732 51.5317 9.90967 51.4017 10.057C51.2717 10.1957 51.094 10.265 50.8687 10.265ZM51.4277 11.253V18H50.2837V11.253H51.4277ZM56.4904 12.137C55.9704 12.137 55.5458 12.2583 55.2164 12.501C54.8958 12.735 54.6358 13.0383 54.4364 13.411V18H53.2924V11.253H54.3714L54.4104 12.462H54.4364C54.6184 12.072 54.9044 11.7513 55.2944 11.5C55.6844 11.2487 56.1784 11.123 56.7764 11.123C57.4438 11.123 57.9724 11.3007 58.3624 11.656C58.7611 12.0027 58.9604 12.54 58.9604 13.268V18H57.8164V13.385C57.8164 12.917 57.6994 12.592 57.4654 12.41C57.2314 12.228 56.9064 12.137 56.4904 12.137ZM66.568 17.428C66.568 17.8613 66.503 18.2557 66.373 18.611C66.2517 18.975 66.0523 19.2827 65.775 19.534C65.5063 19.7853 65.1553 19.9803 64.722 20.119C64.2973 20.2577 63.7817 20.327 63.175 20.327C62.8457 20.327 62.5553 20.3097 62.304 20.275C62.0527 20.2403 61.8317 20.1927 61.641 20.132C61.459 20.08 61.303 20.0193 61.173 19.95C61.043 19.8893 60.9347 19.8287 60.848 19.768V18.741C60.9867 18.819 61.1297 18.8883 61.277 18.949C61.433 19.0183 61.602 19.079 61.784 19.131C61.966 19.183 62.1697 19.222 62.395 19.248C62.629 19.2827 62.8933 19.3 63.188 19.3C64.02 19.3 64.6007 19.144 64.93 18.832C65.2593 18.52 65.424 18.0563 65.424 17.441V16.401C65.2247 16.7997 64.943 17.1203 64.579 17.363C64.2237 17.6057 63.7817 17.727 63.253 17.727C62.8543 17.727 62.473 17.6577 62.109 17.519C61.7537 17.3803 61.4373 17.1767 61.16 16.908C60.8913 16.6307 60.6747 16.2883 60.51 15.881C60.354 15.465 60.276 14.984 60.276 14.438C60.276 13.8833 60.354 13.4023 60.51 12.995C60.6747 12.579 60.8913 12.2323 61.16 11.955C61.4373 11.6777 61.758 11.4697 62.122 11.331C62.486 11.1923 62.8717 11.123 63.279 11.123C63.8163 11.123 64.267 11.2443 64.631 11.487C65.0037 11.7297 65.294 12.059 65.502 12.475L65.515 12.332C65.515 12.176 65.5237 11.9897 65.541 11.773C65.5583 11.5477 65.5757 11.3743 65.593 11.253H66.633C66.6157 11.3743 66.5983 11.5477 66.581 11.773C66.5723 11.9983 66.568 12.1847 66.568 12.332V17.428ZM63.461 16.7C63.747 16.7 64.007 16.6567 64.241 16.57C64.4837 16.4747 64.6917 16.3317 64.865 16.141C65.047 15.9503 65.1857 15.7163 65.281 15.439C65.385 15.153 65.437 14.8193 65.437 14.438C65.437 13.6667 65.2463 13.0903 64.865 12.709C64.4923 12.3277 64.02 12.137 63.448 12.137C63.162 12.137 62.8933 12.1847 62.642 12.28C62.3993 12.3753 62.187 12.5183 62.005 12.709C61.8317 12.8997 61.693 13.1423 61.589 13.437C61.485 13.723 61.433 14.0567 61.433 14.438C61.433 14.8193 61.485 15.153 61.589 15.439C61.693 15.7163 61.836 15.9503 62.018 16.141C62.2 16.323 62.4123 16.4617 62.655 16.557C62.9063 16.6523 63.175 16.7 63.461 16.7ZM70.5833 18.13C70.2279 18.13 69.9116 18.0997 69.6343 18.039C69.3656 17.987 69.1273 17.922 68.9193 17.844C68.7199 17.7573 68.5509 17.6707 68.4123 17.584C68.2736 17.4887 68.1653 17.4063 68.0873 17.337V16.31C68.1739 16.3967 68.2909 16.492 68.4383 16.596C68.5856 16.6913 68.7633 16.7823 68.9713 16.869C69.1793 16.9557 69.4133 17.0293 69.6733 17.09C69.9419 17.142 70.2409 17.168 70.5703 17.168C71.0556 17.168 71.4413 17.09 71.7273 16.934C72.0133 16.778 72.1563 16.5137 72.1563 16.141C72.1563 15.9417 72.1086 15.7813 72.0133 15.66C71.9266 15.5387 71.8053 15.4433 71.6493 15.374C71.4933 15.296 71.3113 15.2353 71.1033 15.192C70.9039 15.1487 70.6916 15.1053 70.4663 15.062C70.1803 15.0013 69.8986 14.9363 69.6213 14.867C69.3439 14.789 69.0926 14.6807 68.8673 14.542C68.6419 14.3947 68.4599 14.2083 68.3213 13.983C68.1826 13.749 68.1133 13.4457 68.1133 13.073C68.1133 12.4663 68.3473 11.9897 68.8153 11.643C69.2919 11.2963 69.9549 11.123 70.8043 11.123C71.2809 11.123 71.7013 11.1707 72.0653 11.266C72.4379 11.3613 72.7239 11.4653 72.9233 11.578V12.605C72.6979 12.4577 72.4163 12.3363 72.0783 12.241C71.7489 12.137 71.3373 12.085 70.8433 12.085C70.3319 12.085 69.9376 12.1543 69.6603 12.293C69.3916 12.4317 69.2573 12.683 69.2573 13.047C69.2573 13.229 69.2963 13.3763 69.3743 13.489C69.4523 13.593 69.5563 13.6797 69.6863 13.749C69.8249 13.8097 69.9809 13.8573 70.1543 13.892C70.3276 13.9267 70.5096 13.9657 70.7003 14.009C70.9949 14.0697 71.2983 14.1347 71.6103 14.204C71.9223 14.2733 72.1996 14.3817 72.4423 14.529C72.6936 14.6763 72.8973 14.8757 73.0533 15.127C73.2179 15.3697 73.3003 15.699 73.3003 16.115C73.3003 16.505 73.2223 16.83 73.0663 17.09C72.9103 17.35 72.7023 17.558 72.4423 17.714C72.1909 17.8613 71.9006 17.9653 71.5713 18.026C71.2506 18.0953 70.9213 18.13 70.5833 18.13Z" fill="black"/>
<path d="M19.4658 15.4419L18.4352 14.8468C18.5392 14.2855 18.5392 13.7097 18.4352 13.1484L19.4658 12.5532C19.5844 12.4855 19.6376 12.3452 19.5989 12.2145C19.3303 11.3532 18.8731 10.5742 18.2755 9.92582C18.1836 9.82663 18.0336 9.80244 17.9174 9.87018L16.8868 10.4653C16.4537 10.0928 15.9554 9.80485 15.4158 9.61615V8.42825C15.4158 8.29276 15.3215 8.17422 15.1884 8.14518C14.3005 7.9468 13.3909 7.95647 12.5465 8.14518C12.4134 8.17422 12.3191 8.29276 12.3191 8.42825V9.61856C11.782 9.80969 11.2836 10.0976 10.8481 10.4678L9.8199 9.8726C9.70135 9.80485 9.55377 9.82663 9.46184 9.92824C8.86426 10.5742 8.407 11.3532 8.13845 12.2169C8.09733 12.3476 8.15297 12.4879 8.27152 12.5557L9.30216 13.1508C9.19813 13.7121 9.19813 14.2879 9.30216 14.8492L8.27152 15.4443C8.15297 15.5121 8.09974 15.6524 8.13845 15.7831C8.407 16.6443 8.86426 17.4234 9.46184 18.0718C9.55377 18.171 9.70377 18.1951 9.8199 18.1274L10.8505 17.5322C11.2836 17.9048 11.782 18.1927 12.3215 18.3814V19.5718C12.3215 19.7072 12.4159 19.8258 12.5489 19.8548C13.4368 20.0532 14.3465 20.0435 15.1908 19.8548C15.3239 19.8258 15.4183 19.7072 15.4183 19.5718V18.3814C15.9554 18.1903 16.4537 17.9024 16.8892 17.5322L17.9199 18.1274C18.0384 18.1951 18.186 18.1734 18.2779 18.0718C18.8755 17.4258 19.3328 16.6468 19.6013 15.7831C19.6376 15.65 19.5844 15.5097 19.4658 15.4419ZM13.8675 15.9331C12.8005 15.9331 11.932 15.0645 11.932 13.9976C11.932 12.9306 12.8005 12.0621 13.8675 12.0621C14.9344 12.0621 15.8029 12.9306 15.8029 13.9976C15.8029 15.0645 14.9344 15.9331 13.8675 15.9331Z" fill="#111111"/>
</svg>
