<svg width="100" height="36" viewBox="0 0 100 36" fill="none" xmlns="http://www.w3.org/2000/svg">
<rect width="100" height="36" rx="4" fill="#FFCC00"/>
<path d="M23.3319 12.718V22H24.5669V18.035H27.5829C27.8862 18.035 28.1289 18.0827 28.3109 18.178C28.4929 18.2647 28.6402 18.386 28.7529 18.542C28.8655 18.6893 28.9479 18.867 28.9999 19.075C29.0519 19.2743 29.0952 19.4867 29.1299 19.712C29.1732 19.9373 29.1992 20.167 29.2079 20.401C29.2165 20.635 29.2252 20.856 29.2339 21.064C29.2425 21.2633 29.2599 21.4453 29.2859 21.61C29.3205 21.7747 29.3812 21.9047 29.4679 22H30.8459C30.7159 21.844 30.6162 21.6663 30.5469 21.467C30.4862 21.259 30.4385 21.0423 30.4039 20.817C30.3692 20.5917 30.3475 20.362 30.3389 20.128C30.3302 19.894 30.3172 19.6643 30.2999 19.439C30.2739 19.2137 30.2349 18.997 30.1829 18.789C30.1395 18.581 30.0659 18.3947 29.9619 18.23C29.8665 18.0567 29.7322 17.9093 29.5589 17.788C29.3942 17.6667 29.1775 17.58 28.9089 17.528V17.502C29.4722 17.346 29.8795 17.0557 30.1309 16.631C30.3909 16.2063 30.5209 15.7123 30.5209 15.149C30.5209 14.395 30.2695 13.8013 29.7669 13.368C29.2729 12.9347 28.5839 12.718 27.6999 12.718H23.3319ZM27.1409 16.995H24.5669V13.758H27.6349C28.2155 13.758 28.6359 13.9053 28.8959 14.2C29.1559 14.4947 29.2859 14.876 29.2859 15.344C29.2859 15.682 29.2252 15.9593 29.1039 16.176C28.9912 16.384 28.8352 16.553 28.6359 16.683C28.4452 16.8043 28.2199 16.8867 27.9599 16.93C27.6999 16.9733 27.4269 16.995 27.1409 16.995ZM37.6133 22V15.279H36.5083V19.075C36.5083 19.3783 36.465 19.66 36.3783 19.92C36.3003 20.1713 36.179 20.3923 36.0143 20.583C35.8496 20.7737 35.6416 20.921 35.3903 21.025C35.1476 21.129 34.8573 21.181 34.5193 21.181C34.0946 21.181 33.761 21.0597 33.5183 20.817C33.2756 20.5743 33.1543 20.245 33.1543 19.829V15.279H32.0493V19.699C32.0493 20.063 32.084 20.3967 32.1533 20.7C32.2313 20.9947 32.3613 21.2503 32.5433 21.467C32.7253 21.6837 32.9636 21.8527 33.2583 21.974C33.553 22.0867 33.9213 22.143 34.3633 22.143C34.8573 22.143 35.2863 22.0477 35.6503 21.857C36.0143 21.6577 36.3133 21.35 36.5473 20.934H36.5733V22H37.6133ZM39.2729 15.279V22H40.3779V18.204C40.3779 17.9007 40.4169 17.6233 40.4949 17.372C40.5816 17.112 40.7073 16.8867 40.8719 16.696C41.0366 16.5053 41.2403 16.358 41.4829 16.254C41.7343 16.15 42.0289 16.098 42.3669 16.098C42.7916 16.098 43.1253 16.2193 43.3679 16.462C43.6106 16.7047 43.7319 17.034 43.7319 17.45V22H44.8369V17.58C44.8369 17.216 44.7979 16.8867 44.7199 16.592C44.6506 16.2887 44.5249 16.0287 44.3429 15.812C44.1609 15.5953 43.9226 15.4263 43.6279 15.305C43.3333 15.1837 42.9649 15.123 42.5229 15.123C41.5263 15.123 40.7983 15.5303 40.3389 16.345H40.3129V15.279H39.2729ZM50.1537 12.718V22H51.2587V21.103H51.2847C51.406 21.3023 51.5534 21.4713 51.7267 21.61C51.9087 21.74 52.0994 21.844 52.2987 21.922C52.498 22 52.6974 22.0563 52.8967 22.091C53.1047 22.1257 53.291 22.143 53.4557 22.143C53.967 22.143 54.4134 22.052 54.7947 21.87C55.1847 21.688 55.5054 21.441 55.7567 21.129C56.0167 20.8083 56.2074 20.4357 56.3287 20.011C56.4587 19.5863 56.5237 19.1357 56.5237 18.659C56.5237 18.1823 56.4587 17.7317 56.3287 17.307C56.1987 16.8823 56.0037 16.5097 55.7437 16.189C55.4924 15.8597 55.1717 15.5997 54.7817 15.409C54.4004 15.2183 53.9497 15.123 53.4297 15.123C52.9617 15.123 52.5327 15.2097 52.1427 15.383C51.7527 15.5477 51.4667 15.8163 51.2847 16.189H51.2587V12.718H50.1537ZM55.3537 18.581C55.3537 18.9103 55.319 19.231 55.2497 19.543C55.1804 19.855 55.0677 20.1323 54.9117 20.375C54.7557 20.6177 54.5477 20.8127 54.2877 20.96C54.0364 21.1073 53.72 21.181 53.3387 21.181C52.9574 21.181 52.6324 21.1117 52.3637 20.973C52.095 20.8257 51.874 20.635 51.7007 20.401C51.536 20.167 51.4147 19.8983 51.3367 19.595C51.2587 19.283 51.2197 18.9623 51.2197 18.633C51.2197 18.321 51.2544 18.0133 51.3237 17.71C51.4017 17.4067 51.523 17.138 51.6877 16.904C51.8524 16.6613 52.0647 16.4663 52.3247 16.319C52.5847 16.1717 52.901 16.098 53.2737 16.098C53.629 16.098 53.9367 16.1673 54.1967 16.306C54.4654 16.4447 54.682 16.631 54.8467 16.865C55.02 17.099 55.1457 17.3677 55.2237 17.671C55.3104 17.9657 55.3537 18.269 55.3537 18.581ZM63.3848 22V15.279H62.2798V19.075C62.2798 19.3783 62.2364 19.66 62.1498 19.92C62.0718 20.1713 61.9504 20.3923 61.7858 20.583C61.6211 20.7737 61.4131 20.921 61.1618 21.025C60.9191 21.129 60.6288 21.181 60.2908 21.181C59.8661 21.181 59.5324 21.0597 59.2898 20.817C59.0471 20.5743 58.9258 20.245 58.9258 19.829V15.279H57.8208V19.699C57.8208 20.063 57.8554 20.3967 57.9248 20.7C58.0028 20.9947 58.1328 21.2503 58.3148 21.467C58.4968 21.6837 58.7351 21.8527 59.0298 21.974C59.3244 22.0867 59.6928 22.143 60.1348 22.143C60.6288 22.143 61.0578 22.0477 61.4218 21.857C61.7858 21.6577 62.0848 21.35 62.3188 20.934H62.3448V22H63.3848ZM66.2144 14.07V12.718H65.1094V14.07H66.2144ZM65.1094 15.279V22H66.2144V15.279H65.1094ZM67.9912 12.718V22H69.0962V12.718H67.9912ZM71.6141 18.698C71.6141 18.3687 71.6487 18.048 71.7181 17.736C71.7874 17.424 71.9001 17.1467 72.0561 16.904C72.2121 16.6613 72.4201 16.4663 72.6801 16.319C72.9401 16.1717 73.2564 16.098 73.6291 16.098C74.0104 16.098 74.3354 16.1717 74.6041 16.319C74.8727 16.4577 75.0894 16.644 75.2541 16.878C75.4274 17.112 75.5531 17.385 75.6311 17.697C75.7091 18.0003 75.7481 18.3167 75.7481 18.646C75.7481 18.958 75.7091 19.2657 75.6311 19.569C75.5617 19.8723 75.4447 20.1453 75.2801 20.388C75.1154 20.622 74.9031 20.8127 74.6431 20.96C74.3831 21.1073 74.0667 21.181 73.6941 21.181C73.3387 21.181 73.0267 21.1117 72.7581 20.973C72.4981 20.8343 72.2814 20.648 72.1081 20.414C71.9434 20.18 71.8177 19.9157 71.7311 19.621C71.6531 19.3177 71.6141 19.01 71.6141 18.698ZM76.8141 22V12.718H75.7091V16.176H75.6831C75.5617 15.9767 75.4101 15.812 75.2281 15.682C75.0547 15.5433 74.8684 15.435 74.6691 15.357C74.4697 15.2703 74.2704 15.2097 74.0711 15.175C73.8717 15.1403 73.6854 15.123 73.5121 15.123C73.0007 15.123 72.5501 15.2183 72.1601 15.409C71.7787 15.591 71.4581 15.8423 71.1981 16.163C70.9467 16.475 70.7561 16.8433 70.6261 17.268C70.5047 17.6927 70.4441 18.1433 70.4441 18.62C70.4441 19.0967 70.5091 19.5473 70.6391 19.972C70.7691 20.3967 70.9597 20.7693 71.2111 21.09C71.4711 21.4107 71.7917 21.6663 72.1731 21.857C72.5631 22.0477 73.0181 22.143 73.5381 22.143C74.0061 22.143 74.4351 22.0607 74.8251 21.896C75.2151 21.7313 75.5011 21.4627 75.6831 21.09H75.7091V22H76.8141Z" fill="black"/>
</svg>
