<svg width="81" height="36" viewBox="0 0 81 36" fill="none" xmlns="http://www.w3.org/2000/svg">
<rect x="0.5" y="0.5" width="80" height="35" rx="3.5" stroke="black" stroke-opacity="0.2"/>
<path d="M27.8227 15.513H29.0577C28.9884 15.019 28.841 14.5857 28.6157 14.213C28.3904 13.8317 28.1087 13.5153 27.7707 13.264C27.4327 13.0127 27.047 12.822 26.6137 12.692C26.1804 12.562 25.721 12.497 25.2357 12.497C24.525 12.497 23.8924 12.627 23.3377 12.887C22.7917 13.1383 22.3324 13.485 21.9597 13.927C21.5957 14.369 21.3184 14.889 21.1277 15.487C20.937 16.0763 20.8417 16.709 20.8417 17.385C20.8417 18.061 20.9284 18.6937 21.1017 19.283C21.2837 19.8723 21.5524 20.3837 21.9077 20.817C22.263 21.2503 22.7094 21.5927 23.2467 21.844C23.784 22.0867 24.4124 22.208 25.1317 22.208C26.319 22.208 27.255 21.883 27.9397 21.233C28.6244 20.583 29.0274 19.673 29.1487 18.503H27.9137C27.8877 18.8843 27.8097 19.2397 27.6797 19.569C27.5497 19.8983 27.3677 20.1843 27.1337 20.427C26.9084 20.661 26.6354 20.8473 26.3147 20.986C26.0027 21.116 25.643 21.181 25.2357 21.181C24.681 21.181 24.2044 21.077 23.8057 20.869C23.407 20.661 23.0777 20.3837 22.8177 20.037C22.5664 19.6817 22.38 19.27 22.2587 18.802C22.1374 18.3253 22.0767 17.8227 22.0767 17.294C22.0767 16.8087 22.1374 16.3407 22.2587 15.89C22.38 15.4393 22.5664 15.0407 22.8177 14.694C23.0777 14.3387 23.4027 14.057 23.7927 13.849C24.1914 13.641 24.668 13.537 25.2227 13.537C25.8727 13.537 26.4317 13.7017 26.8997 14.031C27.3764 14.3603 27.684 14.8543 27.8227 15.513ZM36.4506 21.974C36.2599 22.0867 35.9956 22.143 35.6576 22.143C35.3716 22.143 35.1419 22.065 34.9686 21.909C34.8039 21.7443 34.7216 21.48 34.7216 21.116C34.4182 21.48 34.0629 21.7443 33.6556 21.909C33.2569 22.065 32.8236 22.143 32.3556 22.143C32.0522 22.143 31.7619 22.1083 31.4846 22.039C31.2159 21.9697 30.9819 21.8613 30.7826 21.714C30.5832 21.5667 30.4229 21.376 30.3016 21.142C30.1889 20.8993 30.1326 20.609 30.1326 20.271C30.1326 19.8897 30.1976 19.5777 30.3276 19.335C30.4576 19.0923 30.6266 18.8973 30.8346 18.75C31.0512 18.594 31.2939 18.477 31.5626 18.399C31.8399 18.321 32.1216 18.256 32.4076 18.204C32.7109 18.1433 32.9969 18.1 33.2656 18.074C33.5429 18.0393 33.7856 17.996 33.9936 17.944C34.2016 17.8833 34.3662 17.801 34.4876 17.697C34.6089 17.5843 34.6696 17.424 34.6696 17.216C34.6696 16.9733 34.6219 16.7783 34.5266 16.631C34.4399 16.4837 34.3229 16.371 34.1756 16.293C34.0369 16.215 33.8766 16.163 33.6946 16.137C33.5212 16.111 33.3479 16.098 33.1746 16.098C32.7066 16.098 32.3166 16.189 32.0046 16.371C31.6926 16.5443 31.5236 16.878 31.4976 17.372H30.3926C30.4099 16.956 30.4966 16.605 30.6526 16.319C30.8086 16.033 31.0166 15.8033 31.2766 15.63C31.5366 15.448 31.8312 15.318 32.1606 15.24C32.4986 15.162 32.8582 15.123 33.2396 15.123C33.5429 15.123 33.8419 15.1447 34.1366 15.188C34.4399 15.2313 34.7129 15.3223 34.9556 15.461C35.1982 15.591 35.3932 15.7773 35.5406 16.02C35.6879 16.2627 35.7616 16.579 35.7616 16.969V20.427C35.7616 20.687 35.7746 20.8777 35.8006 20.999C35.8352 21.1203 35.9392 21.181 36.1126 21.181C36.2079 21.181 36.3206 21.1593 36.4506 21.116V21.974ZM34.6566 18.529C34.5179 18.633 34.3359 18.711 34.1106 18.763C33.8852 18.8063 33.6469 18.8453 33.3956 18.88C33.1529 18.906 32.9059 18.9407 32.6546 18.984C32.4032 19.0187 32.1779 19.0793 31.9786 19.166C31.7792 19.2527 31.6146 19.3783 31.4846 19.543C31.3632 19.699 31.3026 19.9157 31.3026 20.193C31.3026 20.375 31.3372 20.531 31.4066 20.661C31.4846 20.7823 31.5799 20.882 31.6926 20.96C31.8139 21.038 31.9526 21.0943 32.1086 21.129C32.2646 21.1637 32.4292 21.181 32.6026 21.181C32.9666 21.181 33.2786 21.1333 33.5386 21.038C33.7986 20.934 34.0109 20.8083 34.1756 20.661C34.3402 20.505 34.4616 20.3403 34.5396 20.167C34.6176 19.985 34.6566 19.816 34.6566 19.66V18.529ZM37.479 15.279V22H38.584V18.204C38.584 17.9007 38.623 17.6233 38.701 17.372C38.7876 17.112 38.9133 16.8867 39.078 16.696C39.2426 16.5053 39.4463 16.358 39.689 16.254C39.9403 16.15 40.235 16.098 40.573 16.098C40.9976 16.098 41.3313 16.2193 41.574 16.462C41.8166 16.7047 41.938 17.034 41.938 17.45V22H43.043V17.58C43.043 17.216 43.004 16.8867 42.926 16.592C42.8566 16.2887 42.731 16.0287 42.549 15.812C42.367 15.5953 42.1286 15.4263 41.834 15.305C41.5393 15.1837 41.171 15.123 40.729 15.123C39.7323 15.123 39.0043 15.5303 38.545 16.345H38.519V15.279H37.479ZM49.2656 17.437H50.4096C50.3663 17.0383 50.2623 16.696 50.0976 16.41C49.9329 16.1153 49.7206 15.8727 49.4606 15.682C49.2093 15.4913 48.9146 15.3527 48.5766 15.266C48.2473 15.1707 47.8919 15.123 47.5106 15.123C46.9819 15.123 46.5183 15.2183 46.1196 15.409C45.7209 15.591 45.3873 15.8467 45.1186 16.176C44.8586 16.4967 44.6636 16.878 44.5336 17.32C44.4036 17.7533 44.3386 18.2213 44.3386 18.724C44.3386 19.2267 44.4036 19.6903 44.5336 20.115C44.6723 20.531 44.8716 20.8907 45.1316 21.194C45.4003 21.4973 45.7296 21.7313 46.1196 21.896C46.5183 22.0607 46.9733 22.143 47.4846 22.143C48.3426 22.143 49.0186 21.9177 49.5126 21.467C50.0153 21.0163 50.3273 20.375 50.4486 19.543H49.3176C49.2483 20.063 49.0576 20.466 48.7456 20.752C48.4423 21.038 48.0176 21.181 47.4716 21.181C47.1249 21.181 46.8259 21.1117 46.5746 20.973C46.3233 20.8343 46.1196 20.6523 45.9636 20.427C45.8076 20.193 45.6906 19.9287 45.6126 19.634C45.5433 19.3393 45.5086 19.036 45.5086 18.724C45.5086 18.386 45.5433 18.061 45.6126 17.749C45.6819 17.4283 45.7946 17.1467 45.9506 16.904C46.1153 16.6613 46.3319 16.4663 46.6006 16.319C46.8693 16.1717 47.2029 16.098 47.6016 16.098C48.0696 16.098 48.4423 16.215 48.7196 16.449C48.9969 16.683 49.1789 17.0123 49.2656 17.437ZM56.352 17.996H52.491C52.5084 17.736 52.5647 17.4933 52.66 17.268C52.7554 17.034 52.8854 16.8303 53.05 16.657C53.2147 16.4837 53.4097 16.3493 53.635 16.254C53.869 16.15 54.129 16.098 54.415 16.098C54.6924 16.098 54.9437 16.15 55.169 16.254C55.403 16.3493 55.6024 16.4837 55.767 16.657C55.9404 16.8217 56.0747 17.021 56.17 17.255C56.274 17.489 56.3347 17.736 56.352 17.996ZM57.418 19.868H56.326C56.2307 20.31 56.0314 20.6393 55.728 20.856C55.4334 21.0727 55.052 21.181 54.584 21.181C54.22 21.181 53.9037 21.1203 53.635 20.999C53.3664 20.8777 53.1454 20.7173 52.972 20.518C52.7987 20.31 52.673 20.076 52.595 19.816C52.517 19.5473 52.4824 19.2657 52.491 18.971H57.522C57.5394 18.5637 57.5004 18.1347 57.405 17.684C57.3184 17.2333 57.1537 16.8173 56.911 16.436C56.677 16.0547 56.3607 15.7427 55.962 15.5C55.572 15.2487 55.078 15.123 54.48 15.123C54.0207 15.123 53.596 15.2097 53.206 15.383C52.8247 15.5563 52.491 15.799 52.205 16.111C51.9277 16.423 51.711 16.7913 51.555 17.216C51.399 17.6407 51.321 18.1087 51.321 18.62C51.3384 19.1313 51.412 19.6037 51.542 20.037C51.6807 20.4703 51.8844 20.843 52.153 21.155C52.4217 21.467 52.751 21.7097 53.141 21.883C53.5397 22.0563 54.0077 22.143 54.545 22.143C55.3077 22.143 55.9404 21.9523 56.443 21.571C56.9457 21.1897 57.2707 20.622 57.418 19.868ZM58.7324 12.718V22H59.8374V12.718H58.7324Z" fill="black"/>
</svg>
