<svg width="80" height="36" viewBox="0 0 80 36" fill="none" xmlns="http://www.w3.org/2000/svg">
<rect width="80" height="36" rx="4" fill="#E6E6E6"/>
<path d="M25.5144 22.13C24.8211 22.13 24.1927 22.0217 23.6294 21.805C23.0661 21.5883 22.5807 21.2763 22.1734 20.869C21.7747 20.453 21.4671 19.9503 21.2504 19.361C21.0337 18.763 20.9254 18.0913 20.9254 17.346C20.9254 16.592 21.0251 15.9203 21.2244 15.331C21.4237 14.7417 21.7184 14.2433 22.1084 13.836C22.4984 13.42 22.9751 13.1037 23.5384 12.887C24.1104 12.6703 24.7604 12.562 25.4884 12.562C26.1211 12.562 26.6757 12.6313 27.1524 12.77C27.6291 12.9 28.0191 13.056 28.3224 13.238V14.408C27.9324 14.1567 27.4817 13.9703 26.9704 13.849C26.4677 13.7277 25.9694 13.667 25.4754 13.667C24.3747 13.667 23.5601 13.9747 23.0314 14.59C22.5114 15.1967 22.2514 16.1153 22.2514 17.346C22.2514 18.5853 22.5331 19.5083 23.0964 20.115C23.6684 20.7217 24.5091 21.025 25.6184 21.025C26.0951 21.025 26.5587 20.96 27.0094 20.83C27.4687 20.7 27.9064 20.479 28.3224 20.167V21.337C28.0711 21.5363 27.7027 21.7183 27.2174 21.883C26.7407 22.0477 26.1731 22.13 25.5144 22.13ZM33.9256 20.713C33.8476 20.869 33.7479 21.0337 33.6266 21.207C33.5053 21.3717 33.3536 21.5233 33.1716 21.662C32.9896 21.8007 32.7729 21.9133 32.5216 22C32.2789 22.0867 31.9929 22.13 31.6636 22.13C31.0569 22.13 30.5673 21.961 30.1946 21.623C29.8219 21.2763 29.6356 20.7823 29.6356 20.141C29.6356 19.4043 29.8913 18.8627 30.4026 18.516C30.9226 18.1693 31.6593 17.996 32.6126 17.996H33.8736V17.437C33.8736 16.969 33.7523 16.6353 33.5096 16.436C33.2669 16.2367 32.8509 16.137 32.2616 16.137C31.8456 16.137 31.4513 16.2063 31.0786 16.345C30.7059 16.475 30.3723 16.6267 30.0776 16.8V15.773C30.3203 15.6257 30.6453 15.4827 31.0526 15.344C31.4686 15.1967 31.9236 15.123 32.4176 15.123C33.2669 15.123 33.9126 15.3007 34.3546 15.656C34.7966 16.0027 35.0176 16.5443 35.0176 17.281V20.908C35.0176 20.986 35.0176 21.077 35.0176 21.181C35.0263 21.2763 35.0306 21.376 35.0306 21.48C35.0393 21.584 35.0479 21.6837 35.0566 21.779C35.0653 21.8657 35.0739 21.9393 35.0826 22H34.0426C34.0166 21.8787 33.9906 21.7097 33.9646 21.493C33.9473 21.2677 33.9386 21.0727 33.9386 20.908L33.9256 20.713ZM31.9106 21.103C32.2659 21.103 32.5693 21.0293 32.8206 20.882C33.0719 20.7347 33.2756 20.5657 33.4316 20.375C33.5876 20.1757 33.7003 19.985 33.7696 19.803C33.8389 19.6123 33.8736 19.478 33.8736 19.4V18.906H32.7296C32.0449 18.906 31.5466 19.0057 31.2346 19.205C30.9313 19.3957 30.7796 19.686 30.7796 20.076C30.7796 20.3793 30.8706 20.6263 31.0526 20.817C31.2346 21.0077 31.5206 21.103 31.9106 21.103ZM40.0144 16.137C39.4944 16.137 39.0697 16.2583 38.7404 16.501C38.4197 16.735 38.1597 17.0383 37.9604 17.411V22H36.8164V15.253H37.8954L37.9344 16.462H37.9604C38.1424 16.072 38.4284 15.7513 38.8184 15.5C39.2084 15.2487 39.7024 15.123 40.3004 15.123C40.9677 15.123 41.4964 15.3007 41.8864 15.656C42.285 16.0027 42.4844 16.54 42.4844 17.268V22H41.3404V17.385C41.3404 16.917 41.2234 16.592 40.9894 16.41C40.7554 16.228 40.4304 16.137 40.0144 16.137ZM47.2059 22.13C46.6859 22.13 46.2136 22.052 45.7889 21.896C45.3729 21.7313 45.0176 21.5017 44.7229 21.207C44.4282 20.9037 44.2029 20.5353 44.0469 20.102C43.8909 19.6687 43.8129 19.1747 43.8129 18.62C43.8129 18.074 43.8909 17.5843 44.0469 17.151C44.2116 16.7177 44.4412 16.3537 44.7359 16.059C45.0306 15.7557 45.3902 15.526 45.8149 15.37C46.2396 15.2053 46.7206 15.123 47.2579 15.123C47.6739 15.123 48.0552 15.1707 48.4019 15.266C48.7486 15.3527 49.0346 15.4827 49.2599 15.656V16.683C48.9826 16.501 48.6706 16.3667 48.3239 16.28C47.9859 16.1847 47.6349 16.137 47.2709 16.137C46.4822 16.137 45.9016 16.3407 45.5289 16.748C45.1649 17.1553 44.9829 17.7793 44.9829 18.62C44.9829 19.4607 45.1606 20.0847 45.5159 20.492C45.8712 20.8993 46.4346 21.103 47.2059 21.103C47.6132 21.103 47.9859 21.0553 48.3239 20.96C48.6706 20.856 48.9826 20.726 49.2599 20.57V21.597C49.0172 21.7443 48.7226 21.87 48.3759 21.974C48.0379 22.078 47.6479 22.13 47.2059 22.13ZM56.0233 21.428C55.9279 21.4973 55.8109 21.571 55.6723 21.649C55.5336 21.727 55.3646 21.805 55.1653 21.883C54.9659 21.9523 54.7406 22.0087 54.4893 22.052C54.2379 22.104 53.9563 22.13 53.6443 22.13C52.5089 22.13 51.6466 21.8223 51.0573 21.207C50.4679 20.5917 50.1733 19.7293 50.1733 18.62C50.1733 18.074 50.2513 17.5843 50.4073 17.151C50.5719 16.7177 50.7973 16.3537 51.0833 16.059C51.3693 15.7557 51.7073 15.526 52.0973 15.37C52.4873 15.2053 52.9119 15.123 53.3713 15.123C53.8566 15.123 54.2899 15.2053 54.6713 15.37C55.0526 15.5347 55.3646 15.7773 55.6073 16.098C55.8586 16.4187 56.0276 16.8173 56.1143 17.294C56.2096 17.762 56.2096 18.308 56.1143 18.932H51.3563C51.3996 19.66 51.6163 20.206 52.0063 20.57C52.3963 20.9253 52.9769 21.103 53.7483 21.103C54.2683 21.103 54.7146 21.0293 55.0873 20.882C55.4599 20.7347 55.7719 20.5743 56.0233 20.401V21.428ZM53.3453 16.137C52.8513 16.137 52.4266 16.2887 52.0713 16.592C51.7159 16.8953 51.4906 17.3547 51.3953 17.97H55.0223C55.0569 17.346 54.9139 16.8867 54.5933 16.592C54.2726 16.2887 53.8566 16.137 53.3453 16.137ZM58.6918 12.679V22H57.5478V12.679H58.6918Z" fill="black"/>
</svg>
