<svg width="69" height="36" viewBox="0 0 69 36" fill="none" xmlns="http://www.w3.org/2000/svg">
<rect width="69" height="36" rx="4" fill="#FFCC00"/>
<path d="M24.2462 22.13C23.8215 22.13 23.4402 22.0997 23.1022 22.039C22.7642 21.987 22.4652 21.9177 22.2052 21.831C21.9539 21.7357 21.7372 21.636 21.5552 21.532C21.3819 21.4193 21.2432 21.311 21.1392 21.207V20.037C21.2692 20.1497 21.4382 20.2667 21.6462 20.388C21.8542 20.5007 22.0925 20.6047 22.3612 20.7C22.6385 20.7953 22.9332 20.8733 23.2452 20.934C23.5659 20.9947 23.8995 21.025 24.2462 21.025C24.9222 21.025 25.4595 20.8993 25.8582 20.648C26.2569 20.388 26.4562 19.998 26.4562 19.478C26.4562 19.218 26.4085 19.0057 26.3132 18.841C26.2179 18.6677 26.0792 18.5247 25.8972 18.412C25.7152 18.2907 25.4855 18.191 25.2082 18.113C24.9395 18.0263 24.6232 17.9353 24.2592 17.84C23.8952 17.7447 23.5312 17.6363 23.1672 17.515C22.8032 17.3937 22.4739 17.2333 22.1792 17.034C21.8932 16.8347 21.6592 16.5833 21.4772 16.28C21.3039 15.9767 21.2172 15.591 21.2172 15.123C21.2172 14.317 21.4989 13.6887 22.0622 13.238C22.6255 12.7873 23.4879 12.562 24.6492 12.562C24.9872 12.562 25.2862 12.5837 25.5462 12.627C25.8149 12.6617 26.0489 12.7093 26.2482 12.77C26.4562 12.822 26.6339 12.8827 26.7812 12.952C26.9372 13.0213 27.0759 13.0863 27.1972 13.147V14.317C26.8332 14.083 26.4389 13.9183 26.0142 13.823C25.5982 13.719 25.1432 13.667 24.6492 13.667C24.2332 13.667 23.8822 13.7017 23.5962 13.771C23.3189 13.8317 23.0935 13.9227 22.9202 14.044C22.7469 14.1653 22.6212 14.3127 22.5432 14.486C22.4652 14.6593 22.4262 14.8543 22.4262 15.071C22.4262 15.331 22.4825 15.5477 22.5952 15.721C22.7165 15.8943 22.8725 16.0417 23.0632 16.163C23.2625 16.2757 23.4879 16.371 23.7392 16.449C23.9905 16.527 24.2549 16.5963 24.5322 16.657C24.8962 16.7437 25.2689 16.8433 25.6502 16.956C26.0315 17.0687 26.3739 17.2247 26.6772 17.424C26.9805 17.6233 27.2275 17.8833 27.4182 18.204C27.6175 18.516 27.7172 18.9233 27.7172 19.426C27.7172 19.92 27.6175 20.3403 27.4182 20.687C27.2275 21.025 26.9719 21.3023 26.6512 21.519C26.3305 21.7357 25.9622 21.8917 25.5462 21.987C25.1302 22.0823 24.6969 22.13 24.2462 22.13ZM33.0594 20.713C32.9814 20.869 32.8817 21.0337 32.7604 21.207C32.6391 21.3717 32.4874 21.5233 32.3054 21.662C32.1234 21.8007 31.9067 21.9133 31.6554 22C31.4127 22.0867 31.1267 22.13 30.7974 22.13C30.1907 22.13 29.7011 21.961 29.3284 21.623C28.9557 21.2763 28.7694 20.7823 28.7694 20.141C28.7694 19.4043 29.0251 18.8627 29.5364 18.516C30.0564 18.1693 30.7931 17.996 31.7464 17.996H33.0074V17.437C33.0074 16.969 32.8861 16.6353 32.6434 16.436C32.4007 16.2367 31.9847 16.137 31.3954 16.137C30.9794 16.137 30.5851 16.2063 30.2124 16.345C29.8397 16.475 29.5061 16.6267 29.2114 16.8V15.773C29.4541 15.6257 29.7791 15.4827 30.1864 15.344C30.6024 15.1967 31.0574 15.123 31.5514 15.123C32.4007 15.123 33.0464 15.3007 33.4884 15.656C33.9304 16.0027 34.1514 16.5443 34.1514 17.281V20.908C34.1514 20.986 34.1514 21.077 34.1514 21.181C34.1601 21.2763 34.1644 21.376 34.1644 21.48C34.1731 21.584 34.1817 21.6837 34.1904 21.779C34.1991 21.8657 34.2077 21.9393 34.2164 22H33.1764C33.1504 21.8787 33.1244 21.7097 33.0984 21.493C33.0811 21.2677 33.0724 21.0727 33.0724 20.908L33.0594 20.713ZM31.0444 21.103C31.3997 21.103 31.7031 21.0293 31.9544 20.882C32.2057 20.7347 32.4094 20.5657 32.5654 20.375C32.7214 20.1757 32.8341 19.985 32.9034 19.803C32.9727 19.6123 33.0074 19.478 33.0074 19.4V18.906H31.8634C31.1787 18.906 30.6804 19.0057 30.3684 19.205C30.0651 19.3957 29.9134 19.686 29.9134 20.076C29.9134 20.3793 30.0044 20.6263 30.1864 20.817C30.3684 21.0077 30.6544 21.103 31.0444 21.103ZM39.2407 22H37.3947L35.0807 15.253H36.3157L38.3697 21.389L40.4107 15.253H41.5547L39.2407 22ZM47.8572 21.428C47.7619 21.4973 47.6449 21.571 47.5062 21.649C47.3676 21.727 47.1986 21.805 46.9992 21.883C46.7999 21.9523 46.5746 22.0087 46.3232 22.052C46.0719 22.104 45.7902 22.13 45.4782 22.13C44.3429 22.13 43.4806 21.8223 42.8912 21.207C42.3019 20.5917 42.0072 19.7293 42.0072 18.62C42.0072 18.074 42.0852 17.5843 42.2412 17.151C42.4059 16.7177 42.6312 16.3537 42.9172 16.059C43.2032 15.7557 43.5412 15.526 43.9312 15.37C44.3212 15.2053 44.7459 15.123 45.2052 15.123C45.6906 15.123 46.1239 15.2053 46.5052 15.37C46.8866 15.5347 47.1986 15.7773 47.4412 16.098C47.6926 16.4187 47.8616 16.8173 47.9482 17.294C48.0436 17.762 48.0436 18.308 47.9482 18.932H43.1902C43.2336 19.66 43.4502 20.206 43.8402 20.57C44.2302 20.9253 44.8109 21.103 45.5822 21.103C46.1022 21.103 46.5486 21.0293 46.9212 20.882C47.2939 20.7347 47.6059 20.5743 47.8572 20.401V21.428ZM45.1792 16.137C44.6852 16.137 44.2606 16.2887 43.9052 16.592C43.5499 16.8953 43.3246 17.3547 43.2292 17.97H46.8562C46.8909 17.346 46.7479 16.8867 46.4272 16.592C46.1066 16.2887 45.6906 16.137 45.1792 16.137Z" fill="black"/>
</svg>
