<svg width="123" height="36" viewBox="0 0 123 36" fill="none" xmlns="http://www.w3.org/2000/svg">
<rect width="123" height="36" rx="4" fill="#FFCC00"/>
<path d="M25.3658 22.13C24.7418 22.13 24.1568 22.026 23.6108 21.818C23.0648 21.6013 22.5925 21.2893 22.1938 20.882C21.7952 20.4747 21.4788 19.972 21.2448 19.374C21.0195 18.776 20.9068 18.087 20.9068 17.307C20.9068 16.527 21.0195 15.8423 21.2448 15.253C21.4788 14.655 21.7952 14.161 22.1938 13.771C22.5925 13.3723 23.0648 13.0733 23.6108 12.874C24.1568 12.666 24.7418 12.562 25.3658 12.562C25.9985 12.562 26.5878 12.666 27.1338 12.874C27.6798 13.0733 28.1522 13.3723 28.5508 13.771C28.9495 14.1697 29.2615 14.668 29.4868 15.266C29.7122 15.8553 29.8248 16.54 29.8248 17.32C29.8248 18.0913 29.7122 18.776 29.4868 19.374C29.2615 19.972 28.9495 20.4747 28.5508 20.882C28.1522 21.2893 27.6798 21.6013 27.1338 21.818C26.5878 22.026 25.9985 22.13 25.3658 22.13ZM25.3658 21.025C25.8165 21.025 26.2325 20.96 26.6138 20.83C26.9952 20.6913 27.3245 20.479 27.6018 20.193C27.8878 19.8983 28.1088 19.517 28.2648 19.049C28.4295 18.581 28.5118 18.0133 28.5118 17.346C28.5118 16.6787 28.4295 16.111 28.2648 15.643C28.1088 15.175 27.8878 14.798 27.6018 14.512C27.3245 14.2173 26.9952 14.005 26.6138 13.875C26.2325 13.7363 25.8165 13.667 25.3658 13.667C24.9152 13.667 24.4992 13.7363 24.1178 13.875C23.7365 14.005 23.4028 14.2173 23.1168 14.512C22.8395 14.798 22.6185 15.175 22.4538 15.643C22.2978 16.111 22.2198 16.6787 22.2198 17.346C22.2198 18.0133 22.2978 18.581 22.4538 19.049C22.6185 19.517 22.8395 19.8983 23.1168 20.193C23.4028 20.479 23.7365 20.6913 24.1178 20.83C24.4992 20.96 24.9152 21.025 25.3658 21.025ZM34.6937 22.13C34.1737 22.13 33.7231 22.0087 33.3417 21.766C32.9691 21.5233 32.6701 21.1897 32.4447 20.765V24.301H31.3007V15.253H32.3017L32.4187 16.566C32.6441 16.124 32.9474 15.773 33.3287 15.513C33.7101 15.253 34.1824 15.123 34.7457 15.123C35.1357 15.123 35.5084 15.1967 35.8637 15.344C36.2277 15.4827 36.5441 15.6993 36.8127 15.994C37.0901 16.28 37.3067 16.644 37.4627 17.086C37.6274 17.5193 37.7097 18.0307 37.7097 18.62C37.7097 19.218 37.6274 19.738 37.4627 20.18C37.2981 20.6133 37.0771 20.9773 36.7997 21.272C36.5224 21.558 36.2017 21.7747 35.8377 21.922C35.4737 22.0607 35.0924 22.13 34.6937 22.13ZM34.5247 21.103C35.1227 21.103 35.6037 20.8993 35.9677 20.492C36.3404 20.076 36.5267 19.452 36.5267 18.62C36.5267 17.8053 36.3404 17.19 35.9677 16.774C35.6037 16.3493 35.1227 16.137 34.5247 16.137C34.2301 16.137 33.9527 16.189 33.6927 16.293C33.4414 16.397 33.2204 16.553 33.0297 16.761C32.8477 16.9603 32.7004 17.216 32.5877 17.528C32.4837 17.84 32.4317 18.204 32.4317 18.62C32.4317 19.036 32.4837 19.4 32.5877 19.712C32.7004 20.024 32.8477 20.284 33.0297 20.492C33.2204 20.7 33.4414 20.856 33.6927 20.96C33.9527 21.0553 34.2301 21.103 34.5247 21.103ZM44.4647 21.428C44.3693 21.4973 44.2523 21.571 44.1137 21.649C43.975 21.727 43.806 21.805 43.6067 21.883C43.4073 21.9523 43.182 22.0087 42.9307 22.052C42.6793 22.104 42.3977 22.13 42.0857 22.13C40.9503 22.13 40.088 21.8223 39.4987 21.207C38.9093 20.5917 38.6147 19.7293 38.6147 18.62C38.6147 18.074 38.6927 17.5843 38.8487 17.151C39.0133 16.7177 39.2387 16.3537 39.5247 16.059C39.8107 15.7557 40.1487 15.526 40.5387 15.37C40.9287 15.2053 41.3533 15.123 41.8127 15.123C42.298 15.123 42.7313 15.2053 43.1127 15.37C43.494 15.5347 43.806 15.7773 44.0487 16.098C44.3 16.4187 44.469 16.8173 44.5557 17.294C44.651 17.762 44.651 18.308 44.5557 18.932H39.7977C39.841 19.66 40.0577 20.206 40.4477 20.57C40.8377 20.9253 41.4183 21.103 42.1897 21.103C42.7097 21.103 43.156 21.0293 43.5287 20.882C43.9013 20.7347 44.2133 20.5743 44.4647 20.401V21.428ZM41.7867 16.137C41.2927 16.137 40.868 16.2887 40.5127 16.592C40.1573 16.8953 39.932 17.3547 39.8367 17.97H43.4637C43.4983 17.346 43.3553 16.8867 43.0347 16.592C42.714 16.2887 42.298 16.137 41.7867 16.137ZM49.1872 16.137C48.6672 16.137 48.2426 16.2583 47.9132 16.501C47.5926 16.735 47.3326 17.0383 47.1332 17.411V22H45.9892V15.253H47.0682L47.1072 16.462H47.1332C47.3152 16.072 47.6012 15.7513 47.9912 15.5C48.3812 15.2487 48.8752 15.123 49.4732 15.123C50.1406 15.123 50.6692 15.3007 51.0592 15.656C51.4579 16.0027 51.6572 16.54 51.6572 17.268V22H50.5132V17.385C50.5132 16.917 50.3962 16.592 50.1622 16.41C49.9282 16.228 49.6032 16.137 49.1872 16.137ZM58.4812 22.13C58.1259 22.13 57.8095 22.0997 57.5322 22.039C57.2635 21.987 57.0252 21.922 56.8172 21.844C56.6179 21.7573 56.4489 21.6707 56.3102 21.584C56.1715 21.4887 56.0632 21.4063 55.9852 21.337V20.31C56.0719 20.3967 56.1889 20.492 56.3362 20.596C56.4835 20.6913 56.6612 20.7823 56.8692 20.869C57.0772 20.9557 57.3112 21.0293 57.5712 21.09C57.8399 21.142 58.1389 21.168 58.4682 21.168C58.9535 21.168 59.3392 21.09 59.6252 20.934C59.9112 20.778 60.0542 20.5137 60.0542 20.141C60.0542 19.9417 60.0065 19.7813 59.9112 19.66C59.8245 19.5387 59.7032 19.4433 59.5472 19.374C59.3912 19.296 59.2092 19.2353 59.0012 19.192C58.8019 19.1487 58.5895 19.1053 58.3642 19.062C58.0782 19.0013 57.7965 18.9363 57.5192 18.867C57.2419 18.789 56.9905 18.6807 56.7652 18.542C56.5399 18.3947 56.3579 18.2083 56.2192 17.983C56.0805 17.749 56.0112 17.4457 56.0112 17.073C56.0112 16.4663 56.2452 15.9897 56.7132 15.643C57.1899 15.2963 57.8529 15.123 58.7022 15.123C59.1789 15.123 59.5992 15.1707 59.9632 15.266C60.3359 15.3613 60.6219 15.4653 60.8212 15.578V16.605C60.5959 16.4577 60.3142 16.3363 59.9762 16.241C59.6469 16.137 59.2352 16.085 58.7412 16.085C58.2299 16.085 57.8355 16.1543 57.5582 16.293C57.2895 16.4317 57.1552 16.683 57.1552 17.047C57.1552 17.229 57.1942 17.3763 57.2722 17.489C57.3502 17.593 57.4542 17.6797 57.5842 17.749C57.7229 17.8097 57.8789 17.8573 58.0522 17.892C58.2255 17.9267 58.4075 17.9657 58.5982 18.009C58.8929 18.0697 59.1962 18.1347 59.5082 18.204C59.8202 18.2733 60.0975 18.3817 60.3402 18.529C60.5915 18.6763 60.7952 18.8757 60.9512 19.127C61.1159 19.3697 61.1982 19.699 61.1982 20.115C61.1982 20.505 61.1202 20.83 60.9642 21.09C60.8082 21.35 60.6002 21.558 60.3402 21.714C60.0889 21.8613 59.7985 21.9653 59.4692 22.026C59.1485 22.0953 58.8192 22.13 58.4812 22.13ZM67.9764 21.428C67.8811 21.4973 67.7641 21.571 67.6254 21.649C67.4867 21.727 67.3177 21.805 67.1184 21.883C66.9191 21.9523 66.6937 22.0087 66.4424 22.052C66.1911 22.104 65.9094 22.13 65.5974 22.13C64.4621 22.13 63.5997 21.8223 63.0104 21.207C62.4211 20.5917 62.1264 19.7293 62.1264 18.62C62.1264 18.074 62.2044 17.5843 62.3604 17.151C62.5251 16.7177 62.7504 16.3537 63.0364 16.059C63.3224 15.7557 63.6604 15.526 64.0504 15.37C64.4404 15.2053 64.8651 15.123 65.3244 15.123C65.8097 15.123 66.2431 15.2053 66.6244 15.37C67.0057 15.5347 67.3177 15.7773 67.5604 16.098C67.8117 16.4187 67.9807 16.8173 68.0674 17.294C68.1627 17.762 68.1627 18.308 68.0674 18.932H63.3094C63.3527 19.66 63.5694 20.206 63.9594 20.57C64.3494 20.9253 64.9301 21.103 65.7014 21.103C66.2214 21.103 66.6677 21.0293 67.0404 20.882C67.4131 20.7347 67.7251 20.5743 67.9764 20.401V21.428ZM65.2984 16.137C64.8044 16.137 64.3797 16.2887 64.0244 16.592C63.6691 16.8953 63.4437 17.3547 63.3484 17.97H66.9754C67.0101 17.346 66.8671 16.8867 66.5464 16.592C66.2257 16.2887 65.8097 16.137 65.2984 16.137ZM72.8029 21.857C72.6643 21.935 72.4866 22 72.2699 22.052C72.0533 22.104 71.8236 22.13 71.5809 22.13C71.2516 22.13 70.9699 22.0823 70.7359 21.987C70.5106 21.8917 70.3243 21.766 70.1769 21.61C70.0296 21.4453 69.9213 21.2633 69.8519 21.064C69.7913 20.856 69.7609 20.6437 69.7609 20.427V16.228H68.9549V15.253H69.7609V13.836H70.9049V15.253H72.8679V16.228H70.9049V20.284C70.9049 20.57 70.9743 20.778 71.1129 20.908C71.2603 21.038 71.5159 21.103 71.8799 21.103C72.2179 21.103 72.5256 21.0077 72.8029 20.817V21.857ZM77.6272 21.857C77.4885 21.935 77.3108 22 77.0942 22.052C76.8775 22.104 76.6478 22.13 76.4052 22.13C76.0758 22.13 75.7942 22.0823 75.5602 21.987C75.3348 21.8917 75.1485 21.766 75.0012 21.61C74.8538 21.4453 74.7455 21.2633 74.6762 21.064C74.6155 20.856 74.5852 20.6437 74.5852 20.427V16.228H73.7792V15.253H74.5852V13.836H75.7292V15.253H77.6922V16.228H75.7292V20.284C75.7292 20.57 75.7985 20.778 75.9372 20.908C76.0845 21.038 76.3402 21.103 76.7042 21.103C77.0422 21.103 77.3498 21.0077 77.6272 20.817V21.857ZM79.7344 14.265C79.5004 14.265 79.314 14.1957 79.1754 14.057C79.0367 13.9097 78.9674 13.732 78.9674 13.524C78.9674 13.316 79.0367 13.1383 79.1754 12.991C79.314 12.8437 79.5004 12.77 79.7344 12.77C79.9597 12.77 80.1374 12.8437 80.2674 12.991C80.3974 13.1383 80.4624 13.316 80.4624 13.524C80.4624 13.732 80.3974 13.9097 80.2674 14.057C80.1374 14.1957 79.9597 14.265 79.7344 14.265ZM80.2934 15.253V22H79.1494V15.253H80.2934ZM85.3562 16.137C84.8362 16.137 84.4115 16.2583 84.0822 16.501C83.7615 16.735 83.5015 17.0383 83.3022 17.411V22H82.1582V15.253H83.2372L83.2762 16.462H83.3022C83.4842 16.072 83.7702 15.7513 84.1602 15.5C84.5502 15.2487 85.0442 15.123 85.6422 15.123C86.3095 15.123 86.8382 15.3007 87.2282 15.656C87.6268 16.0027 87.8262 16.54 87.8262 17.268V22H86.6822V17.385C86.6822 16.917 86.5652 16.592 86.3312 16.41C86.0972 16.228 85.7722 16.137 85.3562 16.137ZM95.4337 21.428C95.4337 21.8613 95.3687 22.2557 95.2387 22.611C95.1174 22.975 94.918 23.2827 94.6407 23.534C94.372 23.7853 94.021 23.9803 93.5877 24.119C93.163 24.2577 92.6474 24.327 92.0407 24.327C91.7114 24.327 91.421 24.3097 91.1697 24.275C90.9184 24.2403 90.6974 24.1927 90.5067 24.132C90.3247 24.08 90.1687 24.0193 90.0387 23.95C89.9087 23.8893 89.8004 23.8287 89.7137 23.768V22.741C89.8524 22.819 89.9954 22.8883 90.1427 22.949C90.2987 23.0183 90.4677 23.079 90.6497 23.131C90.8317 23.183 91.0354 23.222 91.2607 23.248C91.4947 23.2827 91.759 23.3 92.0537 23.3C92.8857 23.3 93.4664 23.144 93.7957 22.832C94.125 22.52 94.2897 22.0563 94.2897 21.441V20.401C94.0904 20.7997 93.8087 21.1203 93.4447 21.363C93.0894 21.6057 92.6474 21.727 92.1187 21.727C91.72 21.727 91.3387 21.6577 90.9747 21.519C90.6194 21.3803 90.303 21.1767 90.0257 20.908C89.757 20.6307 89.5404 20.2883 89.3757 19.881C89.2197 19.465 89.1417 18.984 89.1417 18.438C89.1417 17.8833 89.2197 17.4023 89.3757 16.995C89.5404 16.579 89.757 16.2323 90.0257 15.955C90.303 15.6777 90.6237 15.4697 90.9877 15.331C91.3517 15.1923 91.7374 15.123 92.1447 15.123C92.682 15.123 93.1327 15.2443 93.4967 15.487C93.8694 15.7297 94.1597 16.059 94.3677 16.475L94.3807 16.332C94.3807 16.176 94.3894 15.9897 94.4067 15.773C94.424 15.5477 94.4414 15.3743 94.4587 15.253H95.4987C95.4814 15.3743 95.464 15.5477 95.4467 15.773C95.438 15.9983 95.4337 16.1847 95.4337 16.332V21.428ZM92.3267 20.7C92.6127 20.7 92.8727 20.6567 93.1067 20.57C93.3494 20.4747 93.5574 20.3317 93.7307 20.141C93.9127 19.9503 94.0514 19.7163 94.1467 19.439C94.2507 19.153 94.3027 18.8193 94.3027 18.438C94.3027 17.6667 94.112 17.0903 93.7307 16.709C93.358 16.3277 92.8857 16.137 92.3137 16.137C92.0277 16.137 91.759 16.1847 91.5077 16.28C91.265 16.3753 91.0527 16.5183 90.8707 16.709C90.6974 16.8997 90.5587 17.1423 90.4547 17.437C90.3507 17.723 90.2987 18.0567 90.2987 18.438C90.2987 18.8193 90.3507 19.153 90.4547 19.439C90.5587 19.7163 90.7017 19.9503 90.8837 20.141C91.0657 20.323 91.278 20.4617 91.5207 20.557C91.772 20.6523 92.0407 20.7 92.3267 20.7ZM99.449 22.13C99.0936 22.13 98.7773 22.0997 98.5 22.039C98.2313 21.987 97.993 21.922 97.785 21.844C97.5856 21.7573 97.4166 21.6707 97.278 21.584C97.1393 21.4887 97.031 21.4063 96.953 21.337V20.31C97.0396 20.3967 97.1566 20.492 97.304 20.596C97.4513 20.6913 97.629 20.7823 97.837 20.869C98.045 20.9557 98.279 21.0293 98.539 21.09C98.8076 21.142 99.1066 21.168 99.436 21.168C99.9213 21.168 100.307 21.09 100.593 20.934C100.879 20.778 101.022 20.5137 101.022 20.141C101.022 19.9417 100.974 19.7813 100.879 19.66C100.792 19.5387 100.671 19.4433 100.515 19.374C100.359 19.296 100.177 19.2353 99.969 19.192C99.7696 19.1487 99.5573 19.1053 99.332 19.062C99.046 19.0013 98.7643 18.9363 98.487 18.867C98.2096 18.789 97.9583 18.6807 97.733 18.542C97.5076 18.3947 97.3256 18.2083 97.187 17.983C97.0483 17.749 96.979 17.4457 96.979 17.073C96.979 16.4663 97.213 15.9897 97.681 15.643C98.1576 15.2963 98.8206 15.123 99.67 15.123C100.147 15.123 100.567 15.1707 100.931 15.266C101.304 15.3613 101.59 15.4653 101.789 15.578V16.605C101.564 16.4577 101.282 16.3363 100.944 16.241C100.615 16.137 100.203 16.085 99.709 16.085C99.1976 16.085 98.8033 16.1543 98.526 16.293C98.2573 16.4317 98.123 16.683 98.123 17.047C98.123 17.229 98.162 17.3763 98.24 17.489C98.318 17.593 98.422 17.6797 98.552 17.749C98.6906 17.8097 98.8466 17.8573 99.02 17.892C99.1933 17.9267 99.3753 17.9657 99.566 18.009C99.8606 18.0697 100.164 18.1347 100.476 18.204C100.788 18.2733 101.065 18.3817 101.308 18.529C101.559 18.6763 101.763 18.8757 101.919 19.127C102.084 19.3697 102.166 19.699 102.166 20.115C102.166 20.505 102.088 20.83 101.932 21.09C101.776 21.35 101.568 21.558 101.308 21.714C101.057 21.8613 100.766 21.9653 100.437 22.026C100.116 22.0953 99.787 22.13 99.449 22.13Z" fill="black"/>
</svg>
