<svg width="95" height="28" viewBox="0 0 95 28" fill="none" xmlns="http://www.w3.org/2000/svg">
<rect width="95" height="28" rx="4" fill="#E6E6E6"/>
<path d="M26.092 8.679H29.212C30.3127 8.679 31.149 8.89567 31.721 9.329C32.3017 9.75367 32.592 10.4253 32.592 11.344C32.592 12.1587 32.3927 12.7827 31.994 13.216C31.604 13.6493 31.0883 13.9353 30.447 14.074L32.982 18H31.604L29.173 14.217H27.314V18H26.092V8.679ZM27.314 9.797V13.112H29.095C29.4243 13.112 29.7233 13.0817 29.992 13.021C30.2693 12.9603 30.5033 12.8607 30.694 12.722C30.8933 12.5833 31.045 12.4013 31.149 12.176C31.2617 11.942 31.318 11.656 31.318 11.318C31.318 10.7633 31.136 10.3733 30.772 10.148C30.408 9.914 29.888 9.797 29.212 9.797H27.314ZM38.6693 16.791C38.4873 17.1723 38.2056 17.493 37.8243 17.753C37.4516 18.0043 36.962 18.13 36.3553 18.13C35.7313 18.13 35.2243 17.9567 34.8343 17.61C34.453 17.2547 34.2623 16.7087 34.2623 15.972V11.253H35.4193V15.972C35.4193 16.1973 35.4496 16.3837 35.5103 16.531C35.5796 16.6697 35.6706 16.7823 35.7833 16.869C35.896 16.9557 36.026 17.0163 36.1733 17.051C36.3293 17.0857 36.4983 17.103 36.6803 17.103C37.183 17.103 37.586 16.9903 37.8893 16.765C38.1926 16.5397 38.4526 16.232 38.6693 15.842V11.253H39.8133V18H38.7993L38.6953 16.791H38.6693ZM44.8889 12.137C44.3689 12.137 43.9442 12.2583 43.6149 12.501C43.2942 12.735 43.0342 13.0383 42.8349 13.411V18H41.6909V11.253H42.7699L42.8089 12.462H42.8349C43.0169 12.072 43.3029 11.7513 43.6929 11.5C44.0829 11.2487 44.5769 11.123 45.1749 11.123C45.8422 11.123 46.3709 11.3007 46.7609 11.656C47.1595 12.0027 47.3589 12.54 47.3589 13.268V18H46.2149V13.385C46.2149 12.917 46.0979 12.592 45.8639 12.41C45.6299 12.228 45.3049 12.137 44.8889 12.137ZM58.4339 14.62C58.4339 15.218 58.3515 15.738 58.1869 16.18C58.0222 16.6133 57.8012 16.9773 57.5239 17.272C57.2465 17.558 56.9259 17.7747 56.5619 17.922C56.1979 18.0607 55.8165 18.13 55.4179 18.13C54.8979 18.13 54.4429 18.0087 54.0529 17.766C53.6715 17.5147 53.3682 17.168 53.1429 16.726L53.1039 18H52.0249V8.679H53.1689L53.1429 12.566C53.3682 12.124 53.6715 11.773 54.0529 11.513C54.4342 11.253 54.9065 11.123 55.4699 11.123C55.8599 11.123 56.2325 11.1967 56.5879 11.344C56.9519 11.4827 57.2682 11.6993 57.5369 11.994C57.8142 12.28 58.0309 12.644 58.1869 13.086C58.3515 13.5193 58.4339 14.0307 58.4339 14.62ZM55.2489 17.103C55.8469 17.103 56.3279 16.8993 56.6919 16.492C57.0645 16.076 57.2509 15.452 57.2509 14.62C57.2509 13.8053 57.0645 13.19 56.6919 12.774C56.3279 12.3493 55.8469 12.137 55.2489 12.137C54.9542 12.137 54.6769 12.189 54.4169 12.293C54.1655 12.397 53.9445 12.553 53.7539 12.761C53.5719 12.9603 53.4245 13.216 53.3119 13.528C53.2079 13.84 53.1559 14.204 53.1559 14.62C53.1559 15.036 53.2079 15.4 53.3119 15.712C53.4245 16.024 53.5719 16.284 53.7539 16.492C53.9445 16.7 54.1655 16.856 54.4169 16.96C54.6769 17.0553 54.9542 17.103 55.2489 17.103ZM64.1488 16.791C63.9668 17.1723 63.6851 17.493 63.3038 17.753C62.9311 18.0043 62.4415 18.13 61.8348 18.13C61.2108 18.13 60.7038 17.9567 60.3138 17.61C59.9325 17.2547 59.7418 16.7087 59.7418 15.972V11.253H60.8988V15.972C60.8988 16.1973 60.9291 16.3837 60.9898 16.531C61.0591 16.6697 61.1501 16.7823 61.2628 16.869C61.3755 16.9557 61.5055 17.0163 61.6528 17.051C61.8088 17.0857 61.9778 17.103 62.1598 17.103C62.6625 17.103 63.0655 16.9903 63.3688 16.765C63.6721 16.5397 63.9321 16.232 64.1488 15.842V11.253H65.2928V18H64.2788L64.1748 16.791H64.1488ZM67.7554 10.265C67.5214 10.265 67.335 10.1957 67.1964 10.057C67.0577 9.90967 66.9884 9.732 66.9884 9.524C66.9884 9.316 67.0577 9.13833 67.1964 8.991C67.335 8.84367 67.5214 8.77 67.7554 8.77C67.9807 8.77 68.1584 8.84367 68.2884 8.991C68.4184 9.13833 68.4834 9.316 68.4834 9.524C68.4834 9.732 68.4184 9.90967 68.2884 10.057C68.1584 10.1957 67.9807 10.265 67.7554 10.265ZM68.3144 11.253V18H67.1704V11.253H68.3144ZM71.3232 8.679V18H70.1792V8.679H71.3232ZM78.024 16.674C77.816 17.116 77.5256 17.4713 77.153 17.74C76.7803 18 76.308 18.13 75.736 18.13C75.3286 18.13 74.943 18.0607 74.579 17.922C74.215 17.7747 73.8943 17.558 73.617 17.272C73.3396 16.9773 73.1186 16.6133 72.954 16.18C72.7893 15.738 72.707 15.218 72.707 14.62C72.707 14.0307 72.7893 13.5193 72.954 13.086C73.1186 12.644 73.3396 12.28 73.617 11.994C73.8943 11.6993 74.215 11.4827 74.579 11.344C74.9516 11.1967 75.3416 11.123 75.749 11.123C76.2603 11.123 76.7023 11.2313 77.075 11.448C77.4476 11.656 77.7466 11.955 77.972 12.345V8.679H79.116V18H78.115L78.024 16.674ZM75.905 17.103C76.1996 17.103 76.4726 17.0553 76.724 16.96C76.9753 16.856 77.192 16.7 77.374 16.492C77.5646 16.284 77.712 16.024 77.816 15.712C77.9286 15.4 77.985 15.036 77.985 14.62C77.985 14.204 77.9286 13.84 77.816 13.528C77.712 13.216 77.5646 12.956 77.374 12.748C77.192 12.54 76.9753 12.3883 76.724 12.293C76.4726 12.189 76.1996 12.137 75.905 12.137C75.307 12.137 74.8173 12.3493 74.436 12.774C74.0633 13.19 73.877 13.8053 73.877 14.62C73.877 15.4433 74.0676 16.063 74.449 16.479C74.8303 16.895 75.3156 17.103 75.905 17.103Z" fill="black"/>
<path d="M18.2887 13.1926L11.414 9.12827C10.8554 8.79821 10 9.11851 10 9.93488V18.0615C10 18.7939 10.7949 19.2353 11.414 18.8681L18.2887 14.8058C18.902 14.4445 18.9039 13.5539 18.2887 13.1926Z" fill="#111111"/>
</svg>
